<?xml version="1.0" standalone="no"?>
<!DOCTYPE svg PUBLIC "-//W3C//DTD SVG 20010904//EN"
 "http://www.w3.org/TR/2001/REC-SVG-20010904/DTD/svg10.dtd">
<svg version="1.0" xmlns="http://www.w3.org/2000/svg"
 width="12169.000000pt" height="3098.000000pt" viewBox="0 0 12169.000000 3098.000000"
 preserveAspectRatio="xMidYMid meet">

<g transform="translate(0.000000,3098.000000) scale(0.100000,-0.100000)"
fill="#000000" stroke="none">
<path d="M11835 30959 c-785 -30 -1564 -149 -2252 -344 -2865 -811 -4751
-3003 -5517 -6415 -54 -243 -65 -296 -445 -2315 -322 -1706 -3584 -18419
-3616 -18525 -4 -13 230 -61 1413 -293 779 -153 1423 -277 1430 -277 6 0 12 4
12 10 0 5 126 652 280 1437 154 785 281 1439 282 1453 0 14 286 1474 634 3245
l633 3220 136 900 c74 495 138 910 140 922 5 20 19 6 104 -95 119 -141 339
-358 476 -468 790 -632 1873 -964 3380 -1035 312 -14 2258 -7 2460 10 1050 86
1840 264 2635 592 197 81 623 293 805 399 790 463 1463 1069 2032 1825 801
1067 1392 2453 1742 4086 57 264 806 4219 851 4489 143 871 168 1750 70 2510
-207 1598 -944 2845 -2160 3657 -194 129 -373 231 -614 349 -820 399 -1762
616 -2891 664 -265 11 -1724 11 -2020 -1z m1570 -2809 c639 -35 1159 -157
1612 -379 314 -154 527 -305 753 -531 456 -456 717 -1038 817 -1825 14 -111
18 -215 18 -505 0 -393 -7 -499 -56 -845 -29 -207 -836 -4275 -921 -4645 -159
-691 -418 -1343 -751 -1890 -777 -1275 -1986 -2074 -3463 -2289 -367 -54 -408
-56 -1349 -56 -918 0 -988 2 -1304 46 -791 110 -1439 404 -1896 863 -467 468
-727 1058 -821 1861 -14 115 -18 228 -18 480 0 353 11 517 60 855 24 170 840
4280 911 4590 141 617 353 1198 613 1680 504 935 1207 1631 2085 2068 644 321
1319 487 2130 525 171 8 1416 5 1580 -3z"/>
<path d="M62796 30959 c-3166 -133 -5425 -1566 -6736 -4272 -379 -782 -681
-1674 -898 -2657 -28 -124 -539 -2686 -1137 -5695 -597 -3008 -1089 -5480
-1092 -5492 l-5 -23 1476 0 1476 0 5 23 c3 12 494 2504 1091 5537 596 3033
1101 5585 1120 5670 310 1341 938 2406 1834 3111 534 421 1162 714 1863 868
726 161 1668 172 2355 30 846 -175 1468 -566 1868 -1174 425 -646 577 -1512
453 -2580 -11 -93 -29 -226 -40 -295 -11 -69 -502 -2610 -1090 -5648 -588
-3038 -1069 -5527 -1069 -5533 0 -5 553 -9 1475 -9 811 0 1475 2 1475 4 0 23
2149 11099 2176 11216 226 974 618 1798 1175 2465 106 127 345 372 470 481
761 669 1700 1055 2789 1148 501 43 1066 26 1500 -45 1044 -172 1796 -674
2199 -1468 173 -341 268 -667 328 -1126 15 -115 18 -210 18 -525 0 -613 3
-593 -395 -2615 -170 -863 -649 -3298 -1065 -5410 -415 -2112 -768 -3904 -784
-3982 l-28 -143 1476 0 1476 0 1058 5433 c1139 5846 1084 5560 1121 5817 209
1449 93 2714 -349 3774 -442 1062 -1228 1902 -2275 2431 -881 444 -1882 668
-3090 692 -1196 23 -2340 -175 -3370 -582 -1223 -484 -2263 -1256 -3003 -2230
-51 -67 -96 -122 -101 -124 -5 -1 -39 67 -76 151 -396 918 -1151 1683 -2135
2163 -977 477 -2115 674 -3539 614z"/>
<path d="M97485 30960 c-1444 -59 -2630 -326 -3620 -815 -877 -433 -1571
-1036 -2080 -1805 -517 -781 -842 -1744 -960 -2845 -22 -203 -31 -729 -16
-922 90 -1124 564 -1958 1479 -2600 655 -460 1616 -832 2782 -1077 118 -25
816 -176 1550 -336 734 -160 1427 -309 1540 -331 1059 -207 1674 -465 2060
-865 345 -358 492 -816 459 -1433 -46 -875 -358 -1581 -904 -2051 -477 -410
-1135 -672 -1995 -794 -492 -70 -717 -78 -2075 -73 -1225 4 -1251 5 -1630 57
-1178 163 -1840 637 -2044 1462 -90 361 -91 714 -5 1311 l7 47 -1475 0 -1475
0 -7 -37 c-220 -1266 -48 -2384 506 -3283 160 -260 332 -475 562 -705 334
-334 677 -577 1141 -810 796 -401 1715 -619 2834 -675 264 -13 2585 -13 2881
0 2223 99 3857 684 4989 1785 795 774 1305 1763 1551 3005 247 1248 161 2274
-258 3095 -510 998 -1544 1701 -3162 2149 -363 101 -586 150 -1925 431 -1627
342 -2273 496 -2780 661 -1047 343 -1512 806 -1606 1598 -15 127 -6 512 16
666 35 253 128 588 230 825 451 1056 1441 1618 3070 1745 372 29 1626 40 2180
20 475 -18 819 -61 1155 -145 1248 -313 1740 -1102 1549 -2480 -10 -77 -19
-143 -19 -147 0 -5 656 -7 1457 -6 l1458 3 17 90 c64 336 91 621 92 975 0 293
-10 442 -45 680 -155 1037 -678 1910 -1524 2545 -223 167 -434 294 -730 440
-733 361 -1497 550 -2570 636 -169 14 -2359 21 -2660 9z"/>
<path d="M114155 30963 c-2730 -92 -4814 -1093 -6235 -2993 -778 -1041 -1345
-2358 -1685 -3915 -42 -192 -784 -4097 -840 -4420 -211 -1216 -188 -2391 66
-3365 56 -214 174 -564 255 -755 677 -1598 2058 -2635 3994 -2999 295 -56 565
-90 990 -127 186 -16 1934 -24 2250 -10 979 44 1820 194 2622 467 1994 679
3474 2084 4389 4167 110 250 309 764 309 797 0 7 -494 10 -1490 10 l-1490 0
-74 -152 c-270 -552 -616 -1012 -1056 -1400 -673 -595 -1549 -983 -2545 -1127
-374 -55 -403 -56 -1400 -56 -1012 0 -1041 1 -1395 61 -1447 245 -2349 1136
-2569 2539 -39 253 -46 360 -46 725 1 510 27 735 166 1438 l82 412 6208 0
6208 0 10 53 c60 298 629 3254 651 3382 240 1377 186 2643 -157 3698 -206 637
-491 1160 -901 1657 -124 150 -435 461 -587 586 -989 817 -2259 1250 -3880
1324 -182 8 -1627 11 -1850 3z m1590 -2612 c606 -55 1063 -174 1493 -390 751
-376 1248 -1013 1456 -1864 84 -342 110 -579 110 -1007 0 -540 -27 -746 -238
-1795 l-92 -460 -4767 -3 c-2622 -1 -4767 -1 -4767 1 0 22 250 1241 279 1361
183 754 474 1436 854 2006 200 299 365 500 626 761 259 258 461 425 732 602
737 483 1606 753 2564 797 248 11 1601 4 1750 -9z"/>
<path d="M29629 30509 c-2434 -88 -4442 -1001 -5819 -2644 -870 -1039 -1480
-2351 -1804 -3885 -26 -118 -528 -2672 -1116 -5675 -589 -3003 -1073 -5466
-1075 -5472 -3 -10 295 -13 1473 -13 l1478 0 1013 5158 c558 2836 1029 5221
1047 5298 175 753 491 1485 902 2089 215 316 379 513 661 796 226 225 328 314
551 483 703 530 1543 865 2414 961 259 29 570 35 1807 35 l1237 0 5 23 c11 45
547 2833 547 2845 0 9 -341 12 -1557 10 -857 0 -1651 -5 -1764 -9z"/>
<path d="M84436 30403 c-3 -16 -118 -653 -256 -1418 -138 -764 -253 -1400
-255 -1412 l-5 -23 1509 0 c1429 0 1510 1 1515 18 5 17 516 2845 516 2856 0 4
-679 6 -1509 6 l-1509 0 -6 -27z"/>
<path d="M50955 27080 c-605 -93 -1991 -304 -3080 -470 -1089 -165 -2032 -310
-2095 -321 -63 -10 -1177 -181 -2475 -379 -1298 -198 -2366 -361 -2374 -362
-8 -2 700 -223 1573 -493 874 -269 1590 -494 1592 -500 15 -39 759 -3311 754
-3315 -22 -17 -90 -120 -90 -138 0 -24 18 -33 42 -21 26 14 92 110 93 136 0
17 227 260 864 923 475 495 868 900 873 900 8 0 1024 -575 1873 -1059 82 -48
151 -86 153 -86 2 0 664 1033 2802 4376 338 529 617 966 618 970 2 5 -2 9 -10
8 -7 -1 -508 -77 -1113 -169z"/>
<path d="M82376 19332 c-715 -3562 -1302 -6485 -1304 -6494 -4 -17 71 -18
1472 -18 l1476 0 5 23 c3 12 588 2927 1300 6477 712 3550 1297 6463 1299 6473
4 16 -71 17 -1472 17 l-1477 0 -1299 -6478z"/>
<path d="M40022 24178 c-15 -15 -15 -33 1 -46 6 -5 48 -12 92 -13 l80 -4 0 30
c0 25 -5 31 -30 36 -52 11 -130 10 -143 -3z"/>
<path d="M39795 24097 c-62 -42 -77 -60 -69 -80 11 -29 32 -26 98 16 55 35 65
46 63 67 -3 37 -34 36 -92 -3z"/>
<path d="M40320 24086 c-16 -21 -5 -37 64 -90 47 -37 62 -43 77 -35 37 19 20
48 -65 110 -44 33 -58 35 -76 15z"/>
<path d="M39556 23863 c-51 -64 -56 -96 -16 -101 20 -2 33 9 68 58 46 63 51
93 16 98 -16 2 -34 -12 -68 -55z"/>
<path d="M40547 23863 c-14 -13 -6 -30 39 -92 35 -47 52 -61 68 -59 34 5 30
34 -15 98 -29 42 -48 60 -64 60 -12 0 -25 -3 -28 -7z"/>
<path d="M39408 23638 c-8 -13 -27 -47 -42 -77 -25 -49 -26 -55 -12 -70 23
-23 43 -6 85 69 26 47 32 67 24 79 -16 25 -39 24 -55 -1z"/>
<path d="M40720 23577 c0 -24 56 -137 74 -149 14 -10 46 10 46 29 0 9 -16 45
-35 80 -29 51 -41 63 -60 63 -19 0 -25 -5 -25 -23z"/>
<path d="M39239 23304 c-34 -77 -35 -107 -1 -112 19 -3 27 7 53 64 34 77 35
107 1 112 -19 3 -27 -7 -53 -64z"/>
<path d="M40857 23296 c-3 -8 8 -49 25 -91 25 -62 34 -75 53 -75 36 0 37 25 6
103 -24 60 -33 73 -54 75 -15 2 -27 -3 -30 -12z"/>
<path d="M39115 22995 c-30 -81 -28 -108 7 -103 18 2 29 19 52 75 31 79 29
103 -8 103 -21 0 -28 -10 -51 -75z"/>
<path d="M40973 22994 c-8 -23 37 -162 55 -169 9 -3 22 1 31 10 13 13 13 22 3
61 -22 82 -39 114 -62 114 -11 0 -23 -7 -27 -16z"/>
<path d="M39032 22753 c-5 -10 -17 -46 -27 -81 -17 -58 -17 -64 -2 -79 8 -9
22 -13 31 -10 16 6 59 138 54 165 -5 24 -45 27 -56 5z"/>
<path d="M41064 22687 c-7 -19 33 -159 48 -169 18 -11 24 -10 38 7 13 15 11
28 -16 123 -13 45 -18 52 -40 52 -13 0 -27 -6 -30 -13z"/>
<path d="M38947 22453 c-2 -5 -12 -41 -22 -81 -16 -68 -16 -75 -1 -90 28 -28
49 -3 65 75 8 39 11 77 8 87 -6 16 -42 22 -50 9z"/>
<path d="M41144 22376 c-3 -9 2 -51 12 -93 17 -72 21 -78 44 -78 24 0 25 3 23
50 -3 75 -23 129 -51 133 -13 2 -24 -3 -28 -12z"/>
<path d="M38891 22141 c-14 -9 -29 -79 -30 -142 -1 -41 23 -60 45 -37 20 20
39 156 24 173 -14 17 -20 18 -39 6z"/>
<path d="M41220 22070 c-12 -7 -12 -21 -3 -85 11 -81 28 -110 56 -99 20 7 22
41 6 116 -15 73 -28 88 -59 68z"/>
<path d="M34572 21850 c-127 -52 -263 -311 -288 -550 -17 -172 54 -791 142
-1245 35 -176 134 -584 174 -717 l21 -68 1744 0 1744 0 -63 133 c-92 194 -179
412 -267 672 -93 275 -226 627 -257 676 -34 56 -133 144 -198 177 -195 98
-421 80 -591 -48 -29 -22 -136 -136 -237 -254 -201 -232 -267 -293 -365 -339
-53 -25 -77 -30 -140 -31 -70 -1 -81 2 -129 32 -127 82 -226 223 -534 762
-189 331 -259 443 -348 559 -73 96 -184 201 -242 229 -47 23 -124 28 -166 12z"/>
<path d="M38840 21804 c-6 -14 -10 -56 -10 -94 0 -70 10 -87 44 -74 20 8 33
159 16 179 -19 23 -39 18 -50 -11z"/>
<path d="M41271 21751 c-10 -7 -12 -22 -7 -62 15 -117 16 -120 45 -117 26 3
26 4 23 70 -4 104 -21 134 -61 109z"/>
<path d="M51620 21618 c-211 -1103 -729 -2210 -1455 -3113 -321 -398 -779
-849 -1180 -1160 -1074 -834 -2369 -1357 -3724 -1505 -320 -35 -524 -43 -920
-37 -377 6 -548 17 -849 58 -749 99 -1504 322 -2161 635 -74 35 -136 64 -138
64 -1 0 -3 -735 -3 -1634 l0 -1633 63 -11 c34 -6 141 -24 237 -41 217 -37 528
-76 765 -97 253 -21 879 -30 1145 -15 2461 136 4705 1250 6261 3109 505 603
939 1303 1264 2037 395 892 634 1862 704 2860 12 166 26 605 19 605 -2 0 -15
-55 -28 -122z"/>
<path d="M38828 21488 c-2 -7 -3 -48 0 -90 4 -66 7 -78 24 -84 32 -10 39 8 36
97 -3 82 -4 84 -29 87 -15 2 -28 -3 -31 -10z"/>
<path d="M41310 21426 c-8 -10 -10 -34 -5 -73 11 -100 13 -105 43 -101 27 3
27 3 23 73 -5 105 -27 141 -61 101z"/>
<path d="M38854 21099 c7 -82 17 -109 41 -109 31 0 36 26 23 107 -13 75 -14
78 -42 81 l-29 4 7 -83z"/>
<path d="M41340 21105 c-8 -10 -10 -36 -5 -89 7 -77 20 -101 49 -90 13 5 16
21 16 74 0 103 -25 147 -60 105z"/>
<path d="M44603 20925 c-42 -53 -53 -87 -33 -100 20 -12 46 5 88 60 47 60 51
89 12 92 -20 2 -34 -9 -67 -52z"/>
<path d="M38911 20856 c-9 -11 -8 -29 4 -77 21 -82 31 -99 56 -99 30 0 33 23
13 98 -24 92 -44 113 -73 78z"/>
<path d="M41362 20788 c-17 -17 -16 -149 2 -174 12 -15 18 -17 33 -8 15 10 18
25 17 94 -1 58 -5 85 -15 91 -18 12 -23 11 -37 -3z"/>
<path d="M44397 20681 c-60 -63 -64 -70 -45 -89 23 -23 48 -11 98 49 42 50 48
63 40 80 -17 30 -33 23 -93 -40z"/>
<path d="M39003 20544 c-6 -16 8 -66 36 -124 12 -26 22 -35 41 -35 21 0 25 4
23 30 0 17 -13 56 -27 88 -19 42 -31 57 -46 57 -11 0 -23 -7 -27 -16z"/>
<path d="M44171 20445 c-56 -59 -62 -88 -22 -93 17 -3 36 8 68 40 57 55 68 75
52 94 -21 25 -45 15 -98 -41z"/>
<path d="M41365 20457 c-3 -7 -5 -49 -3 -93 3 -77 4 -79 28 -79 25 0 25 1 25
90 0 86 -1 90 -23 93 -12 2 -24 -3 -27 -11z"/>
<path d="M43947 20229 c-42 -37 -57 -58 -55 -73 6 -40 42 -31 104 28 50 47 57
57 48 73 -19 31 -37 25 -97 -28z"/>
<path d="M39142 20258 c-17 -17 -16 -23 26 -93 38 -67 52 -78 77 -69 24 10 16
45 -24 109 -39 62 -57 75 -79 53z"/>
<path d="M41361 20136 c-8 -9 -11 -42 -9 -93 3 -75 4 -78 27 -78 31 0 43 40
39 123 -3 49 -6 57 -24 60 -11 2 -26 -4 -33 -12z"/>
<path d="M43702 20020 c-64 -53 -78 -84 -42 -95 29 -9 140 78 140 110 0 18
-16 35 -33 35 -1 0 -30 -23 -65 -50z"/>
<path d="M39317 19993 c-18 -18 -2 -55 46 -107 39 -43 56 -56 70 -51 28 12 20
42 -30 105 -44 55 -69 71 -86 53z"/>
<path d="M43441 19824 c-48 -35 -62 -50 -59 -67 5 -36 35 -31 103 18 66 46 75
61 53 83 -19 19 -30 15 -97 -34z"/>
<path d="M41345 19818 c-3 -7 -6 -49 -8 -93 -2 -76 -1 -80 20 -83 31 -5 45 34
41 117 -3 60 -5 66 -26 69 -12 2 -24 -3 -27 -10z"/>
<path d="M39532 19748 c-23 -23 -11 -48 49 -98 50 -42 63 -48 80 -40 30 17 23
33 -40 93 -63 60 -70 64 -89 45z"/>
<path d="M43175 19651 c-46 -29 -60 -43 -60 -62 0 -38 32 -34 103 11 51 32 63
45 60 63 -5 34 -36 30 -103 -12z"/>
<path d="M39772 19538 c-22 -22 -13 -37 53 -83 70 -50 99 -54 103 -15 2 21 -9
32 -61 68 -69 46 -77 48 -95 30z"/>
<path d="M42897 19496 c-72 -41 -79 -48 -71 -69 9 -26 42 -21 112 15 54 28 62
36 60 58 -4 36 -33 35 -101 -4z"/>
<path d="M41321 19496 c-7 -8 -13 -50 -14 -93 -2 -74 -1 -78 21 -81 27 -4 30
3 41 93 9 70 2 95 -24 95 -7 0 -18 -6 -24 -14z"/>
<path d="M42602 19360 c-67 -31 -84 -53 -60 -77 14 -13 24 -11 92 17 71 30 77
34 74 59 -4 36 -30 36 -106 1z"/>
<path d="M40053 19373 c-7 -2 -13 -16 -13 -29 0 -21 12 -30 71 -59 39 -18 77
-31 84 -29 16 7 27 32 19 45 -5 8 -139 80 -146 78 -2 0 -9 -3 -15 -6z"/>
<path d="M42295 19247 c-51 -19 -60 -26 -60 -47 0 -34 26 -36 105 -8 56 20 65
26 65 48 0 34 -32 36 -110 7z"/>
<path d="M40334 19225 c-11 -29 4 -41 80 -65 68 -21 78 -22 92 -9 24 25 8 43
-61 67 -75 26 -103 28 -111 7z"/>
<path d="M41276 19182 c-10 -17 -29 -151 -23 -166 7 -18 42 -22 52 -6 3 6 37
10 74 10 76 0 105 17 84 48 -8 13 -26 17 -73 17 l-63 0 -1 50 c-1 43 -4 50
-23 53 -11 2 -24 -1 -27 -6z"/>
<path d="M41990 19164 c-57 -16 -82 -36 -73 -60 7 -18 39 -18 119 2 61 16 65
18 62 43 -4 32 -30 36 -108 15z"/>
<path d="M40647 19143 c-4 -3 -7 -15 -7 -25 0 -21 24 -32 106 -47 49 -9 61 -9
73 4 26 25 1 48 -65 62 -68 14 -98 16 -107 6z"/>
<path d="M41670 19107 c-60 -11 -65 -14 -65 -37 0 -25 1 -25 80 -22 88 2 119
18 99 50 -14 22 -33 23 -114 9z"/>
<path d="M40961 19081 c-18 -32 11 -51 80 -53 32 -1 66 -2 75 -2 9 -1 22 7 28
16 18 29 -11 45 -96 52 -70 6 -78 5 -87 -13z"/>
<path d="M41215 18858 c-2 -7 -11 -44 -20 -82 -14 -63 -14 -71 0 -85 26 -27
48 -1 67 79 9 39 14 78 11 86 -6 17 -52 19 -58 2z"/>
<path d="M36340 17595 l0 -1025 1045 0 1045 0 0 1025 0 1025 -1045 0 -1045 0
0 -1025z"/>
<path d="M41145 18550 c-4 -6 -15 -42 -26 -82 -18 -65 -19 -73 -4 -87 11 -12
20 -13 32 -5 20 12 59 145 50 168 -7 18 -42 22 -52 6z"/>
<path d="M41025 18175 c-30 -81 -28 -105 8 -105 21 0 28 10 51 74 28 81 26
106 -9 106 -19 0 -27 -11 -50 -75z"/>
<path d="M40903 17875 c-33 -69 -34 -78 -20 -92 25 -25 46 -8 78 62 34 72 34
98 1 103 -19 3 -28 -8 -59 -73z"/>
<path d="M40757 17594 c-42 -75 -44 -98 -7 -102 21 -2 31 8 63 63 43 73 44 99
7 103 -21 2 -30 -7 -63 -64z"/>
<path d="M40586 17331 c-49 -63 -57 -95 -28 -106 30 -12 132 116 119 149 -13
32 -45 16 -91 -43z"/>
<path d="M34337 17203 c-4 -3 -7 -255 -7 -560 l0 -553 570 0 570 0 0 560 0
560 -563 0 c-310 0 -567 -3 -570 -7z"/>
<path d="M40371 17086 c-56 -57 -64 -88 -24 -94 15 -2 37 11 68 39 58 53 70
75 54 95 -20 25 -43 15 -98 -40z"/>
<path d="M40139 16884 c-46 -32 -64 -51 -64 -67 0 -40 43 -33 108 18 60 48 69
68 38 84 -15 8 -31 1 -82 -35z"/>
<path d="M39853 16717 c-50 -25 -63 -36 -63 -54 0 -39 28 -38 107 1 63 31 74
40 71 59 -5 33 -43 31 -115 -6z"/>
<path d="M39600 16620 c-14 -5 -44 -14 -66 -20 -45 -11 -62 -34 -42 -57 13
-16 40 -13 128 13 47 14 51 18 48 42 -3 30 -26 37 -68 22z"/>
<path d="M38537 16573 c-4 -3 -7 -16 -7 -29 0 -25 16 -31 112 -40 58 -6 68 -4
74 10 11 27 -16 44 -86 55 -77 13 -85 13 -93 4z"/>
<path d="M39270 16553 c-94 -9 -101 -12 -98 -41 l3 -27 80 3 c88 3 118 18 99
50 -12 18 -28 21 -84 15z"/>
<path d="M38854 16525 c-13 -33 3 -43 81 -50 64 -6 79 -5 93 9 13 13 14 20 6
34 -16 24 -171 31 -180 7z"/>
<path d="M38212 14583 l3 -1028 1043 -3 1042 -2 0 1030 0 1030 -1045 0 -1045
0 2 -1027z"/>
<path d="M35320 14940 l0 -650 660 0 660 0 0 650 0 650 -660 0 -660 0 0 -650z"/>
<path d="M33180 14660 l0 -590 605 0 605 0 0 590 0 590 -605 0 -605 0 0 -590z"/>
<path d="M36110 12950 l0 -650 660 0 660 0 0 650 0 650 -660 0 -660 0 0 -650z"/>
<path d="M33780 12590 l0 -590 605 0 605 0 0 590 0 590 -605 0 -605 0 0 -590z"/>
<path d="M6700 9886 c0 -3 -335 -1725 -745 -3827 -410 -2102 -745 -3828 -745
-3836 0 -12 257 -14 1803 -10 1299 3 1829 7 1897 16 652 81 1164 293 1650 684
107 86 351 334 445 452 296 370 525 835 644 1305 38 153 503 2508 527 2675 23
151 26 535 5 670 -59 397 -192 725 -412 1017 -86 114 -263 288 -387 381 -325
241 -699 385 -1177 453 -108 16 -284 18 -1812 21 -931 2 -1693 2 -1693 -1z
m3399 -1054 c540 -104 877 -412 981 -897 31 -143 38 -407 16 -575 -9 -69 -107
-582 -217 -1140 -280 -1424 -275 -1397 -330 -1564 -238 -722 -782 -1218 -1493
-1361 -213 -42 -295 -45 -1469 -45 l-1117 0 5 23 c3 12 241 1237 530 2722 289
1485 533 2737 542 2783 l16 83 1211 -4 c1198 -3 1212 -3 1325 -25z"/>
<path d="M24476 9873 c-12 -42 -1110 -5751 -1129 -5873 -29 -188 -31 -586 -3
-735 52 -284 156 -498 325 -666 200 -200 469 -318 831 -364 106 -14 221 -18
535 -19 l400 -1 97 480 c53 264 97 486 98 493 0 9 -73 12 -332 12 -247 0 -357
4 -425 15 -280 45 -446 178 -498 397 -24 101 -20 292 10 450 13 73 272 1409
575 2968 302 1559 550 2840 550 2847 0 10 -101 13 -514 13 -481 0 -515 -1
-520 -17z"/>
<path d="M70745 9878 c-3 -7 -338 -1723 -745 -3813 -407 -2090 -743 -3812
-746 -3828 l-6 -27 2491 0 c1370 0 2491 3 2491 8 0 4 43 234 95 512 52 277 95
508 95 512 0 5 -877 8 -1950 8 -1726 0 -1950 2 -1950 15 0 8 288 1498 640
3310 352 1812 640 3299 640 3305 0 16 -1049 14 -1055 -2z"/>
<path d="M117941 9838 c-104 -513 -380 -1962 -402 -2108 -41 -273 -30 -251
-94 -192 -156 143 -401 256 -673 312 -218 44 -345 53 -772 53 -441 1 -575 -9
-815 -59 -946 -200 -1568 -864 -1843 -1969 -39 -155 -276 -1387 -307 -1591
-38 -258 -38 -569 0 -789 67 -380 204 -656 449 -901 265 -264 587 -415 1046
-490 158 -26 904 -32 1120 -9 1055 110 1780 696 2127 1720 74 219 109 375 234
1034 66 350 311 1618 544 2818 234 1200 425 2192 425 2203 0 20 -4 20 -514 20
l-515 0 -10 -52z m-1471 -2956 c297 -71 477 -204 590 -437 57 -118 76 -190 92
-346 20 -193 5 -298 -148 -1064 -146 -735 -174 -855 -235 -1009 -205 -516
-574 -831 -1094 -932 -106 -21 -663 -31 -803 -15 -452 53 -722 280 -803 675
-24 116 -28 327 -9 466 18 135 278 1428 310 1543 161 575 550 979 1062 1102
165 40 223 44 598 40 316 -2 364 -5 440 -23z"/>
<path d="M29994 9083 l-130 -638 525 -3 c288 -1 526 0 529 3 5 4 261 1247 262
1268 0 4 -238 7 -528 7 l-528 0 -130 -637z"/>
<path d="M79075 9708 c-7 -20 -255 -1239 -255 -1254 0 -12 83 -14 527 -12
l527 3 128 625 c70 344 127 631 128 638 0 9 -112 12 -525 12 -411 0 -527 -3
-530 -12z"/>
<path d="M95326 9703 c-5 -19 -256 -1251 -256 -1259 0 -2 239 -4 530 -4 312 0
530 4 530 9 0 5 56 285 125 622 69 337 125 621 125 631 0 17 -23 18 -524 18
-491 0 -525 -1 -530 -17z"/>
<path d="M99835 9083 c-3 -21 -211 -1086 -460 -2368 -250 -1282 -461 -2370
-469 -2420 -89 -531 -9 -1009 230 -1371 81 -123 260 -301 389 -387 242 -160
536 -261 881 -302 144 -18 994 -34 994 -20 0 5 41 221 90 482 50 260 90 477
90 483 0 7 -125 10 -367 10 -206 0 -408 5 -458 11 -144 18 -270 54 -395 116
-102 50 -125 67 -206 148 -78 78 -98 104 -137 185 -66 138 -79 198 -84 390 -6
205 -23 109 266 1575 l228 1160 859 5 858 5 98 485 c53 267 97 488 98 493 0 4
-387 7 -860 7 -681 0 -860 3 -860 13 0 11 245 1267 257 1315 l5 22 -520 0
-520 0 -7 -37z"/>
<path d="M17805 7900 c-407 -19 -770 -107 -1090 -264 -653 -320 -1084 -898
-1305 -1749 -39 -152 -283 -1415 -316 -1642 -25 -168 -25 -577 -1 -720 50
-283 131 -500 262 -700 267 -408 726 -661 1325 -729 187 -22 812 -22 1018 -1
597 62 1097 285 1469 654 275 272 470 593 624 1024 l39 107 -524 0 -524 0 -40
-82 c-192 -395 -531 -644 -999 -734 -112 -22 -707 -32 -837 -15 -186 25 -360
92 -485 186 -230 175 -346 500 -312 878 9 107 41 304 57 360 5 16 104 17 1904
17 1800 0 1899 1 1904 18 12 42 210 1080 227 1197 26 168 35 472 20 630 -31
318 -127 602 -283 836 -87 132 -271 314 -411 407 -226 151 -490 248 -806 297
-201 31 -564 41 -916 25z m670 -944 c245 -44 437 -148 561 -304 61 -77 129
-218 154 -322 27 -109 37 -338 21 -475 -10 -87 -63 -380 -77 -427 -5 -17 -80
-18 -1395 -18 -1377 0 -1389 0 -1389 20 0 47 75 375 111 484 202 617 668 1001
1282 1056 152 14 628 4 732 -14z"/>
<path d="M44300 7904 c-597 -22 -1102 -183 -1505 -481 -123 -91 -365 -335
-460 -463 -244 -331 -429 -763 -529 -1238 -40 -189 -254 -1328 -271 -1440 -37
-250 -37 -573 0 -787 67 -380 204 -655 449 -901 266 -266 593 -418 1056 -491
99 -15 180 -18 585 -18 498 0 550 4 807 56 790 159 1390 656 1713 1419 33 77
115 300 115 312 0 4 -235 8 -522 8 l-523 -1 -42 -87 c-125 -262 -326 -463
-588 -592 -169 -83 -282 -117 -480 -145 -141 -20 -664 -20 -798 0 -123 18
-260 64 -357 118 -90 50 -229 185 -279 269 -137 235 -166 533 -90 936 l21 112
1904 0 c1047 0 1904 4 1904 8 0 5 47 254 105 553 122 628 130 678 146 897 33
449 -70 896 -279 1212 -267 404 -723 656 -1308 725 -126 15 -582 26 -774 19z
m493 -935 c599 -52 913 -438 858 -1055 -11 -123 -71 -470 -86 -494 -6 -10
-2785 -16 -2785 -6 0 22 75 362 95 431 92 319 262 598 475 782 233 201 506
314 829 343 130 11 481 11 614 -1z"/>
<path d="M85440 7903 c-998 -29 -1724 -473 -2143 -1309 -120 -241 -226 -539
-291 -824 -28 -123 -706 -3531 -706 -3549 0 -8 149 -10 517 -9 l517 3 223
1135 c531 2696 494 2531 608 2765 202 415 524 672 963 766 124 26 435 37 567
20 335 -44 555 -182 676 -424 23 -44 53 -124 67 -176 24 -89 26 -112 26 -301
-1 -180 -4 -222 -27 -340 -14 -74 -168 -868 -342 -1765 -173 -896 -318 -1642
-321 -1657 l-6 -28 516 0 c283 0 517 4 520 8 2 4 153 777 335 1717 182 941
342 1757 356 1814 133 538 470 929 935 1085 153 51 259 68 470 73 286 8 455
-22 630 -113 160 -83 255 -180 331 -339 62 -128 80 -215 86 -405 3 -102 1
-200 -6 -255 -10 -70 -672 -3462 -696 -3562 l-5 -23 520 0 c286 0 520 3 520 6
0 3 151 778 335 1723 184 946 342 1774 352 1842 24 176 24 535 0 684 -123 748
-574 1219 -1323 1384 -294 65 -710 71 -1039 15 -516 -87 -957 -311 -1302 -660
l-132 -133 -36 65 c-90 161 -254 336 -422 452 -330 225 -754 330 -1273 315z"/>
<path d="M107550 7901 c-1263 -64 -2090 -770 -2405 -2053 -36 -144 -272 -1377
-300 -1563 -73 -484 -15 -947 162 -1300 78 -155 149 -252 283 -386 225 -226
479 -364 820 -448 256 -62 307 -66 830 -66 443 1 485 2 620 23 502 78 889 243
1220 520 331 276 591 670 754 1140 20 57 36 106 36 108 0 2 -235 4 -523 4
l-523 0 -27 -64 c-42 -96 -154 -261 -236 -349 -190 -202 -468 -347 -776 -404
-86 -15 -153 -18 -470 -18 -411 0 -456 5 -627 69 -124 47 -191 90 -289 186
-237 234 -303 574 -208 1078 l21 112 1902 0 1902 0 107 553 c123 638 133 697
148 910 18 261 -8 521 -77 759 -190 664 -727 1081 -1510 1173 -153 18 -616 27
-834 16z m553 -932 c369 -32 627 -186 762 -454 117 -233 131 -500 47 -915
l-37 -185 -1394 -3 -1393 -2 5 22 c3 13 20 95 37 183 56 280 148 523 270 710
250 382 623 603 1089 645 130 11 481 11 614 -1z"/>
<path d="M29741 7718 c-6 -29 -247 -1268 -536 -2753 -289 -1485 -528 -2712
-531 -2727 l-6 -28 516 0 c283 0 517 4 520 8 7 11 1076 5510 1076 5534 0 17
-24 18 -514 18 l-515 0 -10 -52z"/>
<path d="M33870 7761 c0 -8 1077 -5389 1101 -5503 l11 -48 509 0 509 0 24 38
c53 80 3246 5504 3246 5513 0 6 -226 8 -577 7 l-578 -3 -865 -1487 c-728
-1251 -920 -1589 -1210 -2132 -190 -355 -347 -646 -350 -646 -3 0 -47 293 -98
652 -90 629 -103 703 -373 2127 -154 811 -282 1478 -285 1483 -7 11 -1064 10
-1064 -1z"/>
<path d="M52385 7759 c-834 -56 -1489 -421 -1908 -1064 -157 -242 -277 -522
-361 -845 -23 -86 -716 -3600 -716 -3628 0 -9 124 -12 517 -10 l516 3 308
1565 c169 861 317 1610 329 1665 145 660 595 1140 1195 1278 83 19 133 21 605
26 l514 6 92 475 c51 261 95 490 99 508 l6 32 -538 -1 c-296 -1 -592 -6 -658
-10z"/>
<path d="M56460 7757 c0 -8 286 -1188 635 -2623 350 -1435 638 -2625 641
-2644 5 -32 -9 -58 -158 -295 -185 -295 -267 -415 -377 -553 -316 -395 -626
-591 -1003 -632 -54 -5 -227 -10 -386 -10 l-288 0 -93 -473 c-51 -259 -95
-482 -98 -495 l-5 -22 405 0 c400 0 527 6 702 35 344 58 655 194 945 415 374
285 769 774 1247 1545 71 114 3528 5738 3540 5758 2 4 -265 7 -594 7 l-598 0
-877 -1473 c-482 -809 -1040 -1741 -1240 -2070 -308 -509 -364 -595 -370 -575
-4 12 -68 298 -143 633 -74 336 -289 1256 -478 2045 l-342 1435 -533 3 c-441
2 -532 0 -532 -11z"/>
<path d="M78700 7765 c0 -6 -1068 -5502 -1075 -5532 l-5 -23 520 0 c286 0 520
3 520 6 0 10 1070 5517 1076 5537 5 16 -24 17 -515 17 -287 0 -521 -2 -521 -5z"/>
<path d="M94955 7758 c-7 -20 -1075 -5516 -1075 -5533 0 -13 62 -15 514 -15
482 0 515 1 520 18 5 19 1076 5527 1076 5536 0 3 -232 6 -515 6 -403 0 -517
-3 -520 -12z"/>
</g>
</svg>
